# xmcd
#
# Track frame offsets: 
#        150
#        27923
#        46835
#        71585
#        90843
#        112408
#        137283
#        161448
#        180960
#        206615
#        219690
#        241200
#
# Disc length: 3472 seconds
#
# Revision: 1
# Processed by: cddbd v1.5.2PL0 Copyright (c) Steve Scherf et al.
# Submitted via: ExactAudioCopy v1.0b3
#
DISCID=9a0d8e0c
DTITLE=Odd Børretzen and Lars Martin Myhre - Noen ganger er det all righ
DTITLE=t
DYEAR=1995
DGENRE=
TTITLE0=Kjærlighetssang
TTITLE1=Sjømannsvals
TTITLE2=Måkene
TTITLE3=Småbåthavn
TTITLE4=Fortere
TTITLE5=Trollsang
TTITLE6=Justisdepartemang
TTITLE7=Adamtzens 1. sang
TTITLE8=Vi drømte om amerika
TTITLE9=Columblues
TTITLE10=Noen ganger er det all right
TTITLE11=Høstsang
EXTD=
EXTT0=
EXTT1=
EXTT2=
EXTT3=
EXTT4=
EXTT5=
EXTT6=
EXTT7=
EXTT8=
EXTT9=
EXTT10=
EXTT11=
PLAYORDER=
